<svg width="48" height="48" viewBox="0 0 48 48" fill="none" xmlns="http://www.w3.org/2000/svg">
  <defs>
    <linearGradient id="hex" x1="4" y1="4" x2="44" y2="44" gradientUnits="userSpaceOnUse">
      <stop stop-color="#7C3AED"/>
      <stop offset="0.35" stop-color="#A855F7"/>
      <stop offset="0.7" stop-color="#22D3EE"/>
      <stop offset="1" stop-color="#22C55E"/>
    </linearGradient>
    <linearGradient id="arrow" x1="12" y1="32" x2="36" y2="14" gradientUnits="userSpaceOnUse">
      <stop stop-color="#22C55E"/>
      <stop offset="0.5" stop-color="#22D3EE"/>
      <stop offset="1" stop-color="#A855F7"/>
    </linearGradient>
  </defs>
  <rect width="48" height="48" rx="12" fill="#0a0b10"/>
  <path d="M24 5 L41 14.5 L41 33.5 L24 43 L7 33.5 L7 14.5 Z" stroke="url(#hex)" stroke-width="2.5" stroke-linejoin="round" fill="none"/>
  <rect x="14" y="28" width="4" height="8" rx="1" fill="url(#hex)" opacity="0.7"/>
  <rect x="21" y="24" width="4" height="12" rx="1" fill="url(#hex)" opacity="0.85"/>
  <rect x="28" y="20" width="4" height="16" rx="1" fill="url(#hex)"/>
  <path d="M13 30 L21 22 L27 26 L35 16" stroke="url(#arrow)" stroke-width="2.5" stroke-linecap="round" stroke-linejoin="round" fill="none"/>
  <path d="M30 16 L36 14 L34 20" stroke="url(#arrow)" stroke-width="2.5" stroke-linecap="round" stroke-linejoin="round" fill="none"/>
  <circle cx="21" cy="22" r="1.8" fill="#22D3EE"/>
  <circle cx="27" cy="26" r="1.8" fill="#A855F7"/>
</svg>
